inDegrees=no
num_controls=7
num_derivatives=13
num_iterations=92
num_multipliers=7
num_parameters=0
num_slacks=7
num_states=26
objective=0.545440
objective_accelerations=0.041525
objective_balance=0.003767
objective_effort=0.040479
objective_height=0.450241
objective_ligament=0.009429
solver_duration=986.956837
status=Solve_Succeeded
success=true
DataType=double
version=3
OpenSimVersion=4.5
endheader
time	/jointset/ground_pelvis/pelvis_tilt/value	/jointset/ground_pelvis/pelvis_tx/value	/jointset/ground_pelvis/pelvis_ty/value	/jointset/hip_r/hip_flexion_r/value	/jointset/hip_r/hip_adduction_r/value	/jointset/hip_r/hip_rotation_r/value	/jointset/back/lumbar_extension/value	/jointset/patellofemoral_r/patellar_flexion_r/value	/jointset/knee_r/knee_flexion_r/value	/jointset/knee_r/knee_adduction_r/value	/jointset/knee_r/knee_rotation_r/value	/jointset/ankle_r/ankle_angle_r/value	/jointset/subtalar_r/subtalar_angle_r/value	/jointset/ground_pelvis/pelvis_tilt/speed	/jointset/ground_pelvis/pelvis_tx/speed	/jointset/ground_pelvis/pelvis_ty/speed	/jointset/hip_r/hip_flexion_r/speed	/jointset/hip_r/hip_adduction_r/speed	/jointset/hip_r/hip_rotation_r/speed	/jointset/back/lumbar_extension/speed	/jointset/patellofemoral_r/patellar_flexion_r/speed	/jointset/knee_r/knee_flexion_r/speed	/jointset/knee_r/knee_adduction_r/speed	/jointset/knee_r/knee_rotation_r/speed	/jointset/ankle_r/ankle_angle_r/speed	/jointset/subtalar_r/subtalar_angle_r/speed	/forceset/tau_hip_flexion_r	/forceset/tau_hip_adduction_r	/forceset/tau_hip_rotation_r	/forceset/tau_knee_flexion_r	/forceset/tau_ankle_angle_r	/forceset/tau_subtalar_angle_r	/forceset/tau_lumbar_extension	lambda_cid13_p0	lambda_cid14_p0	lambda_cid14_p1	lambda_cid14_p2	lambda_cid14_p3	lambda_cid14_p4	lambda_cid14_p5	/jointset/ground_pelvis/pelvis_tilt/accel	/jointset/ground_pelvis/pelvis_tx/accel	/jointset/ground_pelvis/pelvis_ty/accel	/jointset/hip_r/hip_flexion_r/accel	/jointset/hip_r/hip_adduction_r/accel	/jointset/hip_r/hip_rotation_r/accel	/jointset/back/lumbar_extension/accel	/jointset/patellofemoral_r/patellar_flexion_r/accel	/jointset/knee_r/knee_flexion_r/accel	/jointset/knee_r/knee_adduction_r/accel	/jointset/knee_r/knee_rotation_r/accel	/jointset/ankle_r/ankle_angle_r/accel	/jointset/subtalar_r/subtalar_angle_r/accel	gamma_cid13_p0	gamma_cid14_p0	gamma_cid14_p1	gamma_cid14_p2	gamma_cid14_p3	gamma_cid14_p4	gamma_cid14_p5
0	-0.006515214519551004	0.09626020576940297	0.9427241096097114	0.1762555222360518	-0.2321523496729607	-0.2616407079372366	-0.038598046466844	0.07317863873450646	0.07317863873451017	0.1745320535632086	0.1745328666745952	0.03247278518263602	-0.00345161019776711	0	0	0	0	0	0	0	0	0	0	0	0	0	0.2297184256053463	-0.1435983471886514	-0.0416995387786615	-0.3877872333345122	0.3515159457905475	-0.148928031475191	-0.1292732150400341	-39.07572753122556	62.18438083152569	-43.82526624703462	-3.936818293875111	-9.249493366831098	-682.0320689987873	48.71064864149846	-2.861949192382224	-1.774044075554917	-0.6798617126335832	10.3685003406034	0.3007205160630391	2.246054114400215	-5.606553743327943	8.655701685204999	8.655701685204757	-2.953424360099584	0.1443687147152573	1.937896869870217	0.7456067745621613	9.055189359928346e-08	6.767146128665956e-08	-5.653296699881938e-07	1.798385153409977e-07	1.570631965010866e-08	1.03975227778966e-07	-2.610864326959362e-07
0.01	-0.006651555539117674	0.09617483006109599	0.942691376223715	0.176756585362511	-0.2321364481539564	-0.2615203931034781	-0.03887921159595458	0.0735990484735223	0.07359904847352991	0.1743850989150044	0.1745287598237268	0.03256936573262396	-0.003413582210685963	-0.02720721323195538	-0.01677617825900098	-0.006527034831098889	0.09956157865186852	0.003098618152976978	0.02393700332515363	-0.05570317099989893	0.08373912240972957	0.08373912240973155	-0.02911417303405836	-0.0007782101668221183	0.0194991615945505	0.007563076732653852	0.2308284918750436	-0.1588193428497194	-0.04278726509108211	-0.3970401410918581	0.3673489906102849	-0.1397148462009946	-0.1287750059317434	-39.08968894639816	67.71590539905192	-38.94537906852706	-4.612086680981053	-15.84576425275653	-682.5859908229573	58.89723427504477	-2.640954197205772	-1.584557049001635	-0.6361572180916105	9.652335721600769	0.3021165496574003	2.448673167219388	-5.472720555181871	8.181575599439096	8.181575599439558	-2.848972260565343	-0.1823887600943682	1.983401144125042	0.7552111312239586	1.224049177898677e-07	6.794761101220573e-08	-7.716203167218103e-07	1.6578175994274e-07	4.765899446256458e-08	-9.442129311476588e-08	-3.076881295588411e-07
0.02	-0.007058138052717512	0.09593066210061367	0.9425939659194585	0.178233734094315	-0.2320920236364747	-0.2611644782913378	-0.03970151279043659	0.07484656105275005	0.07484656105275021	0.173955290839351	0.174518176295676	0.03286643296653278	-0.003301212854556887	-0.0540482988080684	-0.03175845043506998	-0.01293538365201296	0.1952171210686258	0.00570459969564557	0.04711999567616221	-0.1082272130742574	0.1654205680427438	0.165420568042749	-0.05657068548836847	-0.001295335442177507	0.04009733678420501	0.01486827380958487	0.2319385581446932	-0.1740403385107791	-0.04387499140353009	-0.4062930488492349	0.3831820354300105	-0.1305016609267916	-0.1282767968234809	-39.13090286941347	73.32403660316427	-34.0726111761983	-5.262763933477494	-22.54657965227121	-681.9175822712755	68.85346042335547	-2.788723661213896	-1.41526285896836	-0.6561245105966258	9.58729309358109	0.2021931940013143	2.095251919571121	-4.97072795821991	8.244166329861917	8.244166329861926	-2.621892244149827	0.1965856930086982	2.157699588891179	0.6940308434175817	1.542579419804519e-07	6.822376073775191e-08	-9.779109634554268e-07	1.517250045444823e-07	7.96116692750205e-08	-2.928178140084978e-07	-3.542898264217459e-07
0.03	-0.007731189758850325	0.09554319730451473	0.9424327576923517	0.1806507831275786	-0.2320238813226525	-0.260582577478973	-0.04103460121506901	0.07690092271711299	0.07690092271711997	0.1732591971557708	0.1745054171134276	0.0333718878844007	-0.00311763131815191	-0.08043660258758488	-0.04567736529083317	-0.01930752858948519	0.2877506064766962	0.007875453987183968	0.0691431889640234	-0.1580585581508462	0.2450659030201998	0.2450659030202191	-0.08241581149460403	-0.001275908949000213	0.06086180759648121	0.02176864653046458	0.2252162395779725	-0.185414707424894	-0.04203806517712524	-0.3986363257897302	0.3697478087286172	-0.1148097733478562	-0.1229431363864938	-39.19838814524021	69.68048075941975	-28.00459692467857	-6.105653996847314	-20.89189315458087	-681.0401364820034	79.95184640276939	-2.545050487683836	-1.371618222942746	-0.6280088735211631	9.020075603856233	0.2171475657248214	2.238355030049749	-4.939550727387203	7.766806829816627	7.766806829818717	-2.531128132733389	-0.09822543236639839	2.016077404527218	0.6759944970166347	1.696545345536102e-07	7.090569938693915e-08	-1.061340312273738e-06	1.720728640781552e-07	9.285014270143763e-08	-3.941404565781369e-07	-3.957761647475919e-07
0.04	-0.008664357853043723	0.09501826087504607	0.9422077781382301	0.1839799068828177	-0.2319355072621164	-0.2597839443343974	-0.04285604567946746	0.07974015568088283	0.07974015568088409	0.1723115911413361	0.174492282884118	0.03408103882581862	-0.002867455252419407	-0.1060715764216513	-0.05925277710901258	-0.02568964905494706	0.3776320654622153	0.009750949038512343	0.09046646211812871	-0.2058984210278069	0.3223948279228224	0.3223948279228553	-0.1068731516557536	-0.001370344849365637	0.08083654149401381	0.02818717967508124	0.2184939210112592	-0.1967890763390151	-0.04020113895077726	-0.3909796027302228	0.3563135820272182	-0.09911788576892754	-0.1176094759494925	-39.29083702575317	66.10698513884697	-21.93609194843171	-6.935169164027466	-19.34905273519819	-679.0723025278324	90.85415724810262	-2.638057672124023	-1.346562251451451	-0.6581196161945608	9.056887809070776	0.1431213459592666	1.955267892819848	-4.572431518294347	7.780884314895233	7.780884314895167	-2.344335075132523	0.173813214300265	1.999752205942613	0.597662928164961	1.847118192583681e-07	7.36372419314592e-08	-1.14223643845462e-06	1.931300971155792e-07	1.057027563054622e-07	-4.934615758833618e-07	-4.371570317633955e-07
0.05	-0.009850405731612749	0.09435934438425284	0.9419187140348018	0.1881954277739477	-0.2318298636044344	-0.258777654216166	-0.04514511548657139	0.08334247402798936	0.08334247402799662	0.1711263524778959	0.1744798385969425	0.03498651662464033	-0.002555351311276744	-0.1309885426669144	-0.07246427214276002	-0.03213751976315408	0.4650102242659768	0.01132241846120754	0.1106737193667658	-0.2515543142651486	0.397714608349531	0.3977146083495802	-0.1299229624947704	-0.001141645599560455	0.1001510981385276	0.03415298396021665	0.2104258052169797	-0.1798496909613914	-0.03835438995343687	-0.3824947366171286	0.3477511345640095	-0.108637362912984	-0.1112634971263829	-39.40667462415679	63.13219924810052	-26.60860087464513	-6.170441450847724	-17.68902035243829	-677.2553937921457	79.89262889502112	-2.396073482728832	-1.2984845485051	-0.6403725129249315	8.509010986009486	0.1557199396596524	2.035837938737173	-4.50798430746925	7.354352870140878	7.354352870143381	-2.247722520084379	-0.05599447824033255	1.881157384200792	0.5837868239087159	1.763268430008747e-07	6.487833586245534e-08	-1.075313616889697e-06	1.781486617031181e-07	1.07439394985241e-07	-5.600882313240609e-07	-4.128219973235861e-07
0.06	-0.0112811347490273	0.09357030465928874	0.9415647208813331	0.1932708764671137	-0.2317101932126785	-0.257572814865875	-0.04787990744225123	0.0876873557720787	0.08768735577208119	0.1697181320196961	0.1744690027505388	0.03608190998800694	-0.002186039798238561	-0.1550078041922494	-0.0852774239431786	-0.03867545906304283	0.5496176258689648	0.01255629585330269	0.1301763085294635	-0.295042850743115	0.4709075073195267	0.4709075073195934	-0.151469510605708	-0.001048656692193161	0.1188196544028439	0.03962869405418612	0.202357689422661	-0.1629103055837693	-0.03650764095611784	-0.374009870504059	0.3391886871007896	-0.1181568400570444	-0.1049175183032946	-39.54408317824732	60.21964858274612	-31.29187613843613	-5.379251572432634	-16.12083458584136	-674.4387509917137	68.72548883912368	-2.458516728138516	-1.266893604785533	-0.6761333345309092	8.502736368916011	0.07560293983921615	1.814334275631891	-4.13896016641935	7.355508023552636	7.355508023552844	-2.043682529516557	0.1466711458127707	1.870552129903232	0.4996440899317648	1.669548241765496e-07	5.563562143077681e-08	-1.002166839630214e-06	1.616498086717144e-07	1.087079926155779e-07	-6.253382777599377e-07	-3.857199775593298e-07
0.07000000000000001	-0.0129482970085024	0.09265502041816662	0.9411447010270283	0.1991797418843354	-0.2315798307708967	-0.2561785295515916	-0.05103845555580176	0.09275431730251379	0.09275431730251929	0.168101957739347	0.174460482856833	0.03736077434349189	-0.001764340791716317	-0.1782909876935353	-0.09772044546180904	-0.04535280183443903	0.6317153801577734	0.01348423438682089	0.1485482855926233	-0.3363327496493576	0.5421117597329455	0.5421117597329177	-0.1715478263662745	-0.0006856677328788993	0.1368289043974604	0.04465225715225305	0.1941043858278691	-0.1561146402485965	-0.03445273711511875	-0.3660673440240718	0.3286469768831518	-0.1177342646985193	-0.09847980773631856	-39.7011166475615	57.01798604517309	-31.7596681073967	-5.201039173333125	-14.50493699775419	-672.092788776082	66.00625349796714	-2.243144440773768	-1.224137845151266	-0.6673041124993827	7.997297035209321	0.09648180399736642	1.828809805005833	-4.073901405254388	6.946894717640654	6.946894717626393	-1.957418308199082	-0.02337422840046869	1.747498650976814	0.4947459240726177	1.493370055732691e-07	4.54336238459693e-08	-8.692085799142225e-07	1.487105307263931e-07	1.03430436811005e-07	-6.55143352648545e-07	-3.458865455776381e-07
0.08	-0.01484427615891413	0.09161707967790868	0.9406571538721983	0.2058963852597161	-0.2314411704450017	-0.2546044883900065	-0.0545998819889202	0.09852212353056378	0.09852212353056472	0.1662914978596173	0.1744546954528312	0.03881600864227058	-0.001294199453347822	-0.200771182380845	-0.1098087237703473	-0.05218091916807151	0.7111732175004228	0.01421587267590652	0.1661274779896963	-0.3756185146567247	0.6110764468425299	0.6110764468424085	-0.1903266304817343	-0.0005021587492133071	0.1540936430615167	0.0493171604234574	0.1858510822330467	-0.1493189749134206	-0.03239783327413114	-0.3581248175440974	0.3181052666655098	-0.1173116893399918	-0.0920420971693655	-39.87555901884878	53.872015001261	-32.23178348480278	-5.006060452842718	-12.97250905850987	-668.8655111094384	63.11210369903277	-2.297918965343364	-1.195944962766962	-0.7062882469781691	7.974752979684094	0.03634289095266335	1.655777342414499	-3.738133386644316	6.907594962785748	6.907594962786139	-1.78378020049512	0.1107751506830944	1.721649863791327	0.4279121245592388	1.311871998874753e-07	3.516973702547607e-08	-7.323915148784565e-07	1.360009027866256e-07	9.773054852676054e-08	-6.826616551792638e-07	-3.052317321625635e-07
0.09	-0.01696171269104638	0.09046017673457916	0.9401004018288831	0.2133953539922106	-0.2312963148499908	-0.2528601474406964	-0.0585435854328382	0.104969359158434	0.1049693591584366	0.1642999735350119	0.1744515720828237	0.04044058821583052	-0.0007792303676589964	-0.2225891746235073	-0.1214948174699834	-0.05920063428120597	0.7881713447614571	0.01472910098297551	0.1826055987529001	-0.41279200190862	0.678001185644176	0.6780011856441357	-0.20776858647985	-0.0001543056623933275	0.1707209428527288	0.05362954932633587	0.1778852439415299	-0.1495350624421204	-0.03041196394989658	-0.3519433671390286	0.3086100357005744	-0.1106582483638933	-0.085758256103212	-40.0650903398782	51.27922952162633	-29.92919397400306	-5.221213191588227	-12.11333308988829	-666.1278661339976	65.84130132578407	-2.104671992932931	-1.143365005403038	-0.7046218385010944	7.494977084886372	0.05481803573018091	1.623601872551919	-3.657430561887453	6.529463431696722	6.529463431708617	-1.693053260446726	-0.007929430109297312	1.618096465114292	0.4257380950793714	1.02505119032598e-07	2.472840017607954e-08	-5.062511520648662e-07	1.451678774560416e-07	8.244448543759032e-08	-6.769865312698265e-07	-2.590553733564807e-07
